# xmcd CD database file
#
# Track frame offsets:
#	150
#	21607
#	46300
#
# Disc length: 925 seconds
#
# Revision: 0
# Processed by: cddbd v1.5PL3 Copyright (c) Steve Scherf et al.
# Submitted via: CDex 1.50
#
DISCID=22039b03
DTITLE=INGRY'S - INGRY'S LIVE GIGS
DYEAR=1991
DGENRE=JPop
TTITLE0=Maybe I Love You
TTITLE1=抱きしめたい
TTITLE2=笑おう
EXTD=YEAR: 1991
EXTT0=
EXTT1=
EXTT2=
PLAYORDER=
